<?xml version="1.0" standalone="no"?>
<!DOCTYPE svg PUBLIC "-//W3C//DTD SVG 20010904//EN"
 "http://www.w3.org/TR/2001/REC-SVG-20010904/DTD/svg10.dtd">
<svg version="1.0" xmlns="http://www.w3.org/2000/svg"
 width="1208.000000pt" height="1204.000000pt" viewBox="0 0 1208.000000 1204.000000"
 preserveAspectRatio="xMidYMid meet">
<metadata>
Created by potrace 1.15, written by Peter Selinger 2001-2017
</metadata>
<g transform="translate(0.000000,1204.000000) scale(0.100000,-0.100000)"
fill="#000000" stroke="none">
<path d="M5680 11124 c-752 -68 -1336 -227 -1947 -532 -498 -248 -914 -545
-1311 -936 -271 -266 -461 -494 -661 -791 -475 -706 -743 -1438 -848 -2310
-26 -217 -26 -883 0 -1100 130 -1080 536 -2007 1231 -2810 137 -157 419 -435
576 -565 799 -663 1725 -1057 2771 -1177 221 -25 887 -25 1108 0 1046 120
1972 514 2771 1177 157 130 439 408 576 565 319 369 594 791 785 1207 235 512
376 1017 446 1603 14 121 18 227 18 550 0 323 -4 429 -18 550 -130 1080 -536
2007 -1231 2810 -137 157 -419 435 -576 565 -795 661 -1726 1057 -2760 1176
-138 16 -808 28 -930 18z m823 -289 c808 -78 1560 -341 2227 -780 914 -602
1603 -1493 1945 -2520 333 -997 333 -2063 0 -3060 -201 -603 -542 -1196 -956
-1662 -90 -102 -341 -352 -439 -438 -649 -571 -1421 -954 -2262 -1124 -332
-68 -612 -95 -973 -95 -277 0 -432 10 -683 45 -1822 252 -3366 1532 -3947
3274 -333 997 -333 2063 0 3060 253 760 679 1422 1281 1995 720 685 1670 1141
2666 1279 124 17 280 32 478 45 109 7 508 -4 663 -19z"/>
<path d="M6380 8433 c-202 -19 -275 -28 -400 -53 -423 -84 -784 -240 -1095
-473 -99 -74 -300 -256 -291 -264 2 -2 111 -6 242 -7 184 -2 272 -8 384 -25
502 -76 929 -257 1285 -544 113 -91 308 -296 387 -408 69 -96 176 -296 218
-404 13 -33 25 -62 26 -64 4 -4 132 75 181 111 l32 24 -51 60 c-70 81 -161
220 -218 335 -51 100 -102 220 -97 225 13 13 152 63 158 57 3 -5 25 -52 48
-106 67 -159 154 -301 244 -402 l45 -50 27 25 c90 82 210 289 280 483 l35 97
-585 0 -585 0 0 85 0 85 365 0 c201 0 365 2 365 5 0 11 -62 127 -95 179 l-35
54 81 27 c44 15 85 25 92 22 14 -5 93 -147 128 -229 l24 -58 368 0 367 0 0
-85 0 -85 -153 0 -153 0 -23 -72 c-77 -239 -172 -414 -343 -633 -17 -22 -16
-22 90 -92 128 -85 270 -157 452 -230 74 -30 136 -56 138 -57 2 -3 -28 -50
-94 -144 -1 -2 -51 16 -111 39 -195 76 -458 221 -586 322 l-38 30 -32 -23
c-44 -33 -176 -120 -229 -151 l-45 -27 15 -78 c22 -118 20 -394 -2 -519 -63
-347 -223 -654 -475 -913 -44 -46 -81 -86 -81 -88 0 -7 322 -3 394 5 l69 7
386 -363 c383 -361 411 -384 439 -350 6 7 13 185 18 477 l7 465 85 40 c110 51
279 153 384 231 417 309 682 714 758 1160 24 137 29 368 10 504 -41 309 -181
622 -397 890 -85 106 -290 302 -406 388 -495 372 -1154 578 -1826 570 -80 0
-162 -3 -181 -5z"/>
<path d="M4605 7344 c-16 -2 -70 -9 -120 -15 -591 -73 -1128 -372 -1414 -789
-114 -166 -194 -356 -228 -544 -25 -134 -22 -362 6 -493 51 -244 158 -462 327
-664 110 -132 283 -283 431 -377 32 -20 43 -33 43 -52 0 -14 -16 -175 -35
-359 -19 -183 -35 -341 -35 -351 0 -24 26 -50 49 -50 10 0 173 114 362 253
l344 253 114 -22 c248 -49 613 -57 861 -19 795 120 1417 606 1576 1231 53 211
55 402 4 624 -43 190 -101 328 -203 480 -309 463 -849 778 -1502 876 -94 14
-512 27 -580 18z m405 -224 c633 -57 1184 -349 1480 -785 99 -146 173 -323
196 -470 22 -133 15 -338 -15 -448 -152 -570 -706 -986 -1451 -1089 -221 -30
-577 -12 -808 42 -46 11 -97 20 -113 20 -23 0 -80 -37 -240 -155 -115 -85
-211 -155 -212 -155 -2 0 7 93 19 208 30 276 31 257 -13 287 -21 14 -85 57
-143 95 -362 238 -598 579 -650 939 -18 122 -8 303 24 426 31 121 123 311 198
410 349 465 1042 736 1728 675z"/>
<path d="M4675 6468 c-66 -166 -569 -1447 -572 -1460 -5 -16 5 -18 104 -18
l110 0 85 228 85 227 316 3 315 2 16 -42 c9 -24 47 -126 84 -228 l68 -185 117
-3 c64 -1 117 0 117 4 0 3 -133 345 -297 760 l-296 754 -117 0 -118 0 -17 -42z
m254 -498 c67 -184 121 -336 121 -337 0 -2 -111 -3 -246 -3 -193 0 -245 3
-242 13 33 95 243 665 245 664 1 -2 56 -153 122 -337z"/>
</g>
</svg>
